HIERARCHY
ROOT Reference
{
  OFFSET 0 0 0
  CHANNELS 6 Xposition Yposition Zposition Zrotation Xrotation Yrotation
  JOINT Hips
  {
    OFFSET 251.394 724.17 483.536
    CHANNELS 3 Zrotation Xrotation Yrotation
    JOINT RightUpLeg
    {
      OFFSET -0.450515 -23.4426 -1.37224
      CHANNELS 3 Zrotation Xrotation Yrotation
      JOINT RightLeg
      {
        OFFSET 112.821 0.0872427 -0.321027
        CHANNELS 3 Zrotation Xrotation Yrotation
        JOINT RightFoot
        {
          OFFSET 105.718 0.000193788 0.0213165
          CHANNELS 3 Zrotation Xrotation Yrotation
          JOINT RightToeBase
          {
            OFFSET 37.638 -0.000116272 0.00224792
            CHANNELS 3 Zrotation Xrotation Yrotation
            JOINT RightToeEnd
            {
              OFFSET 21.2112 0.114605 -0.000138184
              CHANNELS 3 Zrotation Xrotation Yrotation
              End Site
              {
                OFFSET 0 0 0
              }
            }
          }
        }
      }
    }
    JOINT LeftUpLeg
    {
      OFFSET -0.449508 23.4315 -1.37054
      CHANNELS 3 Zrotation Xrotation Yrotation
      JOINT LeftLeg
      {
        OFFSET 112.821 -0.0485242 -0.372458
        CHANNELS 3 Zrotation Xrotation Yrotation
        JOINT LeftFoot
        {
          OFFSET 105.716 0.00496094 -0.0229443
          CHANNELS 3 Zrotation Xrotation Yrotation
          JOINT LeftToeBase
          {
            OFFSET 37.639 0 0.00158905
            CHANNELS 3 Zrotation Xrotation Yrotation
            JOINT LeftToeEnd
            {
              OFFSET 21.2113 -0.125031 -0.00017438
              CHANNELS 3 Zrotation Xrotation Yrotation
              End Site
              {
                OFFSET 0 0 0
              }
            }
          }
        }
      }
    }
    JOINT Spine
    {
      OFFSET -5.01225 0.000463591 -9.60395
      CHANNELS 3 Zrotation Xrotation Yrotation
      JOINT Spine1
      {
        OFFSET 26.0222 -0.000271301 -0.000155029
        CHANNELS 3 Zrotation Xrotation Yrotation
        JOINT Spine2
        {
          OFFSET 27.173 -0.000155029 -0.000310058
          CHANNELS 3 Zrotation Xrotation Yrotation
          JOINT Spine3
          {
            OFFSET 36.3953 -0.000232544 7.75146e-005
            CHANNELS 3 Zrotation Xrotation Yrotation
            JOINT Neck
            {
              OFFSET 36.4331 0 -3.00261
              CHANNELS 3 Zrotation Xrotation Yrotation
              JOINT Head
              {
                OFFSET 23.0407 -0.000232544 -0.000310058
                CHANNELS 3 Zrotation Xrotation Yrotation
                End Site
                {
                  OFFSET 0 0 0
                }
              }
            }
            JOINT LeftShoulder
            {
              OFFSET 20.1317 6.74168 -12.6061
              CHANNELS 3 Zrotation Xrotation Yrotation
              JOINT LeftArm
              {
                OFFSET 34.2172 -5.81359e-005 7.75146e-005
                CHANNELS 3 Zrotation Xrotation Yrotation
                JOINT LeftForeArm
                {
                  OFFSET 65.4129 -0.0821605 0.0585235
                  CHANNELS 3 Zrotation Xrotation Yrotation
                  JOINT LeftHand
                  {
                    OFFSET 67.3883 0.0359667 0.0112396
                    CHANNELS 3 Zrotation Xrotation Yrotation
                    JOINT LeftHandThumb1
                    {
                      OFFSET 8.78386 2.85353 -6.05362
                      CHANNELS 3 Zrotation Xrotation Yrotation
                      JOINT LeftHandThumb2
                      {
                        OFFSET 8.25498 -0.000116272 -0.000174407
                        CHANNELS 3 Zrotation Xrotation Yrotation
                        JOINT LeftHandThumb3
                        {
                          OFFSET 7.24822 0.000310058 5.81358e-005
                          CHANNELS 3 Zrotation Xrotation Yrotation
                          JOINT LeftHandThumb4
                          {
                            OFFSET 7.0004 -3.87568e-005 -0.000310057
                            CHANNELS 3 Zrotation Xrotation Yrotation
                            End Site
                            {
                              OFFSET 0 0 0
                            }
                          }
                        }
                      }
                    }
                    JOINT LeftHandIndex1
                    {
                      OFFSET 24.0991 -1.01537 -5.40558
                      CHANNELS 3 Zrotation Xrotation Yrotation
                      JOINT LeftHandIndex2
                      {
                        OFFSET 7.26759 -0.000290679 -0.000465086
                        CHANNELS 3 Zrotation Xrotation Yrotation
                        JOINT LeftHandIndex3
                        {
                          OFFSET 7.13628 -1.93787e-005 0.000232543
                          CHANNELS 3 Zrotation Xrotation Yrotation
                          JOINT LeftHandIndex4
                          {
                            OFFSET 5.46699 9.68932e-005 -0.000387571
                            CHANNELS 3 Zrotation Xrotation Yrotation
                            End Site
                            {
                              OFFSET 0 0 0
                            }
                          }
                        }
                      }
                    }
                    JOINT LeftHandMiddle1
                    {
                      OFFSET 24.4604 -2.52837 0.918567
                      CHANNELS 3 Zrotation Xrotation Yrotation
                      JOINT LeftHandMiddle2
                      {
                        OFFSET 7.41627 -5.81359e-005 0.000116271
                        CHANNELS 3 Zrotation Xrotation Yrotation
                        JOINT LeftHandMiddle3
                        {
                          OFFSET 8.76829 3.87573e-005 -7.75142e-005
                          CHANNELS 3 Zrotation Xrotation Yrotation
                          JOINT LeftHandMiddle4
                          {
                            OFFSET 6.07588 -0.00013565 -5.81356e-005
                            CHANNELS 3 Zrotation Xrotation Yrotation
                            End Site
                            {
                              OFFSET 0 0 0
                            }
                          }
                        }
                      }
                    }
                    JOINT LeftHandRing1
                    {
                      OFFSET 22.465 -1.97467 6.3466
                      CHANNELS 3 Zrotation Xrotation Yrotation
                      JOINT LeftHandRing2
                      {
                        OFFSET 7.36666 -0.000232544 0.000387571
                        CHANNELS 3 Zrotation Xrotation Yrotation
                        JOINT LeftHandRing3
                        {
                          OFFSET 8.07624 -0.000465087 -0.000203475
                          CHANNELS 3 Zrotation Xrotation Yrotation
                          JOINT LeftHandRing4
                          {
                            OFFSET 6.04433 0.00013565 3.87571e-005
                            CHANNELS 3 Zrotation Xrotation Yrotation
                            End Site
                            {
                              OFFSET 0 0 0
                            }
                          }
                        }
                      }
                    }
                    JOINT LeftHandPinky1
                    {
                      OFFSET 19.5278 0.352933 10.4295
                      CHANNELS 3 Zrotation Xrotation Yrotation
                      JOINT LeftHandPinky2
                      {
                        OFFSET 6.16525 5.8136e-005 -0.000251921
                        CHANNELS 3 Zrotation Xrotation Yrotation
                        JOINT LeftHandPinky3
                        {
                          OFFSET 6.14448 -0.000329434 -0.00510625
                          CHANNELS 3 Zrotation Xrotation Yrotation
                          JOINT LeftHandPinky4
                          {
                            OFFSET 4.98555 0.000116272 0.000116271
                            CHANNELS 3 Zrotation Xrotation Yrotation
                            End Site
                            {
                              OFFSET 0 0 0
                            }
                          }
                        }
                      }
                    }
                  }
                }
              }
            }
            JOINT RightShoulder
            {
              OFFSET 20.1309 -6.74152 -12.6063
              CHANNELS 3 Zrotation Xrotation Yrotation
              JOINT RightArm
              {
                OFFSET 34.2171 7.75146e-005 7.75146e-005
                CHANNELS 3 Zrotation Xrotation Yrotation
                JOINT RightForeArm
                {
                  OFFSET 65.4492 0.242543 -0.176501
                  CHANNELS 3 Zrotation Xrotation Yrotation
                  JOINT RightHand
                  {
                    OFFSET 67.3888 -0.0867388 0.0597442
                    CHANNELS 3 Zrotation Xrotation Yrotation
                    JOINT RightHandThumb1
                    {
                      OFFSET 8.78307 -2.85357 -6.05302
                      CHANNELS 3 Zrotation Xrotation Yrotation
                      JOINT RightHandThumb2
                      {
                        OFFSET 8.25493 -7.75145e-005 0
                        CHANNELS 3 Zrotation Xrotation Yrotation
                        JOINT RightHandThumb3
                        {
                          OFFSET 7.24797 -0.000174408 0.000155029
                          CHANNELS 3 Zrotation Xrotation Yrotation
                          JOINT RightHandThumb4
                          {
                            OFFSET 7.00062 0 0
                            CHANNELS 3 Zrotation Xrotation Yrotation
                            End Site
                            {
                              OFFSET 0 0 0
                            }
                          }
                        }
                      }
                    }
                    JOINT RightHandIndex1
                    {
                      OFFSET 24.0991 1.01525 -5.40578
                      CHANNELS 3 Zrotation Xrotation Yrotation
                      JOINT RightHandIndex2
                      {
                        OFFSET 7.26773 7.75144e-005 0.000232543
                        CHANNELS 3 Zrotation Xrotation Yrotation
                        JOINT RightHandIndex3
                        {
                          OFFSET 7.13572 -0.000310058 3.87571e-005
                          CHANNELS 3 Zrotation Xrotation Yrotation
                          JOINT RightHandIndex4
                          {
                            OFFSET 5.46717 0 3.87572e-005
                            CHANNELS 3 Zrotation Xrotation Yrotation
                            End Site
                            {
                              OFFSET 0 0 0
                            }
                          }
                        }
                      }
                    }
                    JOINT RightHandMiddle1
                    {
                      OFFSET 24.4603 2.52899 0.918547
                      CHANNELS 3 Zrotation Xrotation Yrotation
                      JOINT RightHandMiddle2
                      {
                        OFFSET 7.41641 -0.000116272 -0.000116272
                        CHANNELS 3 Zrotation Xrotation Yrotation
                        JOINT RightHandMiddle3
                        {
                          OFFSET 8.76765 -3.87577e-005 0.000232543
                          CHANNELS 3 Zrotation Xrotation Yrotation
                          JOINT RightHandMiddle4
                          {
                            OFFSET 6.07609 -0.000193787 -0.000116271
                            CHANNELS 3 Zrotation Xrotation Yrotation
                            End Site
                            {
                              OFFSET 0 0 0
                            }
                          }
                        }
                      }
                    }
                    JOINT RightHandRing1
                    {
                      OFFSET 22.465 1.97571 6.34696
                      CHANNELS 3 Zrotation Xrotation Yrotation
                      JOINT RightHandRing2
                      {
                        OFFSET 7.36684 0.000193786 0.000155029
                        CHANNELS 3 Zrotation Xrotation Yrotation
                        JOINT RightHandRing3
                        {
                          OFFSET 8.07614 -0.000271301 0
                          CHANNELS 3 Zrotation Xrotation Yrotation
                          JOINT RightHandRing4
                          {
                            OFFSET 6.04468 0.000232543 0
                            CHANNELS 3 Zrotation Xrotation Yrotation
                            End Site
                            {
                              OFFSET 0 0 0
                            }
                          }
                        }
                      }
                    }
                    JOINT RightHandPinky1
                    {
                      OFFSET 19.5277 -0.352346 10.4296
                      CHANNELS 3 Zrotation Xrotation Yrotation
                      JOINT RightHandPinky2
                      {
                        OFFSET 6.16508 0 0.000232543
                        CHANNELS 3 Zrotation Xrotation Yrotation
                        JOINT RightHandPinky3
                        {
                          OFFSET 6.14396 -0.000155048 -0.0048834
                          CHANNELS 3 Zrotation Xrotation Yrotation
                          JOINT RightHandPinky4
                          {
                            OFFSET 4.98577 -7.75146e-005 -7.75143e-005
                            CHANNELS 3 Zrotation Xrotation Yrotation
                            End Site
                            {
                              OFFSET 0 0 0
                            }
                          }
                        }
                      }
                    }
                  }
                }
              }
            }
          }
        }
      }
    }
  }
}
MOTION
Frames:	4
Frame Time:	0.0333333
0 0 0 -90 -7.01671e-015 -180 11.6234 20.811 -154.506 -145.468 32.0289 -62.7231 0.129938 0.0495822 -80.5161 -6.32431 10.8532 30.7737 -0.523671 0.252089 42.4296 1.00303e-005 2.53422e-005 -86.4974 161.956 4.14619 -65.4724 0.218791 -0.0438777 -107.606 -1.10256 2.95055 22.8098 0.582266 -0.119305 57.107 -1.97062e-005 -2.49269e-005 -86.4974 -11.5184 13.4843 144.373 -8.51147 -8.36915 -3.23657 14.0262 -4.91012 -12.863 7.30328 -21.0696 8.16778 18.3106 26.3368 -22.7002 18.4728 2.06724 51.6199 85.7331 23.4226 -19.7672 49.7527 20.3723 38.8273 3.83255 1.92293 100.452 50.2949 -40.0961 3.15626 -173.375 -50.1253 136.622 0.000376165 -1.61968e-005 5.00953 0.000165455 0.000155698 25.7997 0.000244176 -0.00136099 -0.000140444 100.42 79.0801 -71.7826 0.000188258 -0.000946323 54.6254 0.00168228 2.14415e-005 51.8876 -0.000561788 -0.00052146 -0.000464365 15.4718 85.6673 19.7589 0.000295504 -0.000193904 65.9845 0.000994483 -0.000214713 28.9976 -0.000531476 -0.000311646 0.000122835 16.1785 83.9647 32.3098 0.000489206 -0.000963625 38.6715 0.00165287 0.000673265 41.1954 -0.000633499 -0.000857073 0.000697903 20.9216 81.3853 5.33327 0.00151647 -0.000525826 45.7783 0.000412894 0.000230648 33.0154 -5.14895e-005 -2.39191e-005 -0.000398247 -87.7188 -26.0795 -0.412744 -36.1555 -9.88777 74.553 -2.79888 18.7296 91.8423 50.0899 58.3776 -19.0111 142.213 51.8016 169.894 -9.2326e-005 0.000106117 16.9256 0.000187977 8.77398e-005 25.7996 1.52589e-005 -7.62937e-005 180 -95.0227 -68.1753 -102.329 -0.000214599 0.000105926 49.7581 0.000220488 -8.86989e-005 51.8875 -0.00299074 0.00434874 180 -105.984 -79.9219 -76.0653 -4.77422e-005 -1.60699e-005 65.9843 -0.000123384 0.000248245 58.5701 -1.52588e-005 -1.08794e-013 -180 -16.1783 -83.9648 34.4451 4.45123e-005 0.000119652 55.5555 -0.000102017 -0.000117629 57.7158 1.52589e-005 -6.1035e-005 -180 13.4558 -78.0187 70.4021 -0.000123624 0.00020132 51.2478 -9.66516e-005 2.2459e-005 49.3611 -7.01671e-015 -4.57763e-005 180 
0 0 0 -90 -7.01671e-015 -180 11.4063 20.7608 -154.27 -145.829 32.0338 -62.5853 0.131496 0.0496584 -80.5463 -6.31205 10.8633 30.8279 -0.523509 0.252415 42.3929 1.00152e-005 2.17505e-005 -86.4974 161.911 4.10885 -65.5341 0.239879 -0.049953 -107.447 -1.06208 2.96654 22.9596 0.582392 -0.118835 57.1556 -1.97087e-005 -2.84574e-005 -86.4974 -11.5888 13.4241 144.676 -7.82593 -8.30812 -3.29343 12.9422 -5.33514 -12.5681 6.75963 -21.3622 6.55263 19.0727 25.4913 -25.3574 17.6313 2.13312 49.6985 87.9692 23.4361 -20.4298 48.8852 19.3946 37.9404 4.19569 3.03267 101.196 49.7328 -40.3226 2.58598 -173.375 -50.1254 136.622 0.000376058 -2.38738e-005 5.00953 0.000165061 0.000155863 25.7997 0.000244179 -0.00141312 -0.000140443 100.42 79.0801 -71.7826 0.000187792 -0.000948671 54.6254 0.00168147 -1.85417e-005 51.8876 -0.000561788 -0.000529826 -0.000464365 15.4718 85.6673 19.759 0.000291229 -0.000203884 65.9845 0.000994072 -0.000234783 28.9976 -0.000531476 -0.000329555 0.000122835 16.1785 83.9647 32.3098 0.00048858 -0.000971813 38.6715 0.00165253 0.0006469 41.1954 -0.000633499 -0.000663816 0.000699292 20.9216 81.3853 5.3333 0.0015172 -0.000529246 45.7783 0.00041336 0.00023145 33.0154 -5.14824e-005 -2.39192e-005 -0.000398247 -86.9599 -25.9852 -1.00252 -36.7367 -11.3586 74.9124 -2.60919 18.3256 91.6271 49.1706 58.3641 -18.3206 142.213 51.8016 169.894 -9.12908e-005 8.296e-005 16.9256 0.000188211 4.16134e-005 25.7996 1.52589e-005 -0.000106811 180 -95.0227 -68.1753 -102.329 -0.000212714 2.38111e-005 49.7581 0.000200795 -0.000198255 51.8875 -0.00299074 0.00434874 180 -105.983 -79.922 -76.0643 -4.66292e-005 -8.27054e-005 65.9843 -0.000126355 0.000242916 58.5701 -1.52588e-005 -3.05175e-005 -180 -16.1786 -83.9649 34.4448 4.41815e-005 0.00010316 55.5555 -0.00010261 -0.000220162 57.7158 1.52589e-005 -6.1035e-005 -180 13.4558 -78.0187 70.4021 -0.000120609 0.00016389 51.2478 -9.86403e-005 -5.79947e-005 49.3611 -7.01671e-015 -7.62938e-005 180 
0 0 0 -90 -7.01671e-015 -180 11.1651 20.7081 -153.996 -146.213 32.0502 -62.4686 0.134742 0.0501325 -80.5625 -6.20836 10.8437 30.8538 -0.523697 0.25208 42.4323 1.00037e-005 1.67769e-005 -86.4974 161.848 4.09604 -65.6097 0.239364 -0.048947 -107.231 -0.969713 2.99528 22.9304 0.582742 -0.116657 57.3664 -1.97488e-005 -3.38484e-005 -86.4974 -11.6556 13.3664 144.965 -7.12372 -8.23145 -3.35203 11.8266 -5.77083 -12.3105 6.19202 -21.5934 4.93315 19.1743 24.3919 -27.4076 16.4555 2.13192 47.5287 90.2287 23.4324 -21.0226 48.0846 18.3584 36.9091 4.57602 4.16521 102.014 49.1834 -40.4838 1.94989 -173.375 -50.1252 136.622 0.000375912 -3.95689e-005 5.00953 0.00016416 0.000148908 25.7997 0.000244178 -0.00151575 -0.000140443 100.42 79.0802 -71.7825 0.000187362 -0.000954921 54.6254 0.00168053 -9.83716e-005 51.8876 -0.000561789 -0.000545476 -0.000464365 15.4716 85.6673 19.7591 0.00028661 -0.000226424 65.9845 0.000993659 -0.000272284 28.9976 -0.000531477 -0.000365858 0.000122835 16.1784 83.9647 32.3098 0.000487932 -0.000987767 38.6715 0.00165217 0.000594678 41.1954 -0.000633499 -0.000663816 0.000699293 20.9215 81.3853 5.33338 0.00151728 -0.000532331 45.7783 0.000413033 0.000231655 33.0154 -5.14965e-005 -2.39193e-005 -0.000398247 -86.3288 -25.8732 -1.76206 -37.3389 -12.9127 75.3125 -2.41633 17.8318 91.4196 48.1323 58.2526 -17.5746 142.213 51.8016 169.894 -9.04997e-005 3.73855e-005 16.9256 0.000188131 -4.83852e-005 25.7996 1.52589e-005 -0.000137329 180 -95.0227 -68.1752 -102.329 -0.000216372 0.000189507 49.7581 0.000202209 -2.56248e-005 51.8875 -0.00299074 0.00434874 180 -105.983 -79.922 -76.0643 -4.38144e-005 6.28107e-005 65.9843 -0.0001272 0.000240035 58.5701 -1.52589e-005 -0.000106811 -180 -16.178 -83.9647 34.4455 4.40803e-005 7.36995e-005 55.5555 -0.000104526 -9.7332e-006 57.7158 1.52589e-005 -7.62938e-005 -180 13.4558 -78.0187 70.4021 -0.000130932 6.58652e-005 51.2478 -9.97917e-005 0.000105415 49.361 -7.01658e-015 -0.000152588 -180 
0 0 0 -90 -7.01671e-015 -180 11.002 20.6405 -153.821 -146.31 31.9961 -62.5039 0.161666 0.0545823 -80.5357 -6.25238 10.8684 30.7602 -0.524532 0.250287 42.6256 1.00443e-005 8.38553e-006 -86.4974 161.885 4.08701 -65.7247 0.257877 -0.0546141 -107.057 -0.882035 2.97847 22.9872 0.582797 -0.116859 57.3503 -1.97891e-005 -4.60984e-005 -86.4974 -11.7158 13.3139 145.225 -6.45154 -8.13793 -3.37554 10.6946 -6.19017 -12.061 5.61272 -21.7593 3.37867 19.0913 22.7601 -29.1173 13.962 2.29801 45.1776 92.4249 23.4168 -21.5109 47.351 17.3447 36.0208 4.79852 5.18212 102.593 48.7831 -40.6742 1.4925 -173.375 -50.1252 136.622 0.000375762 -7.24278e-005 5.00953 0.000163154 0.000140201 25.7997 0.000244178 -0.00130884 -0.000142578 100.419 79.0802 -71.7822 0.000186545 -0.000967853 54.6254 0.00168012 6.07995e-005 51.8876 -0.000561788 -0.000577694 -0.000464366 15.4713 85.6672 19.7594 0.000283219 -0.00027361 65.9845 0.000993481 -0.000340639 28.9976 -0.000531476 -0.000438021 0.000122834 16.1783 83.9646 32.3099 0.000486138 -0.00101989 38.6715 0.00165202 0.000488947 41.1954 -0.0006335 -0.000663816 0.000699293 20.9213 81.3852 5.33354 0.00151739 -0.000538753 45.7783 0.000413699 0.000231068 33.0154 -5.15107e-005 -2.39194e-005 -0.000398247 -85.925 -25.7474 -2.7071 -37.784 -14.3913 75.8485 -1.75929 17.3553 90.7253 47.3818 58.5929 -17.2874 142.213 51.8017 169.894 -9.01139e-005 -5.55292e-005 16.9256 0.000188671 0.000133656 25.7996 1.52589e-005 -0.000213622 180 -95.0228 -68.1752 -102.329 -0.000210986 0.000193054 49.7581 0.000201786 -3.02087e-005 51.8875 -0.00299074 0.00434874 180 -105.983 -79.922 -76.0644 -4.49138e-005 5.91409e-005 65.9843 -0.000129879 0.000230505 58.5701 -1.52589e-005 3.05175e-005 180 -16.178 -83.9647 34.4454 4.35114e-005 1.35017e-005 55.5555 -0.000105925 -1.41704e-005 57.7158 1.52589e-005 -0.000106811 -180 13.4559 -78.0187 70.4021 -0.00012997 0.000243226 51.2478 -9.82018e-005 0.000102917 49.361 -3.24611e-014 -1.52588e-005 -180 
